# xmcd CD database file
#
# Track frame offsets:
#	150
#	13469
#	24876
#	33437
#	49897
#	64032
#	77753
#	89005
#	100220
#	112262
#
# Disc length: 1677 seconds
#
# Revision: 0
# Processed by: cddbd v1.5.1PL2 Copyright (c) Steve Scherf et al.
# Submitted via: CDex 1.70beta2
#
DISCID=83068b0a
DTITLE=Various Artist - Country Smash Hits
DYEAR=2005
DGENRE=Country
TTITLE0=Hank Williams - Hey Good Lookin'
TTITLE1=George Jones - White Lightning
TTITLE2=Johnny Cash - Guess Things Happen That Way
TTITLE3=Merle Haggard - Hungry Eyes
TTITLE4=Conway Twitty - You've Never Been This Far Before
TTITLE5=Willie Nelson and Leon Russell - Heartbreak Hotel
TTITLE6=Ray Price - Crazy Arms
TTITLE7=Marty Robbins - Singing The Blues
TTITLE8=Freddy Fender - Before the Next Teardrop Falls (Live)
TTITLE9=Tammy Wynette - D-I-V-O-R-C-E
EXTD=YEAR: 2005
EXTT0=
EXTT1=
EXTT2=
EXTT3=
EXTT4=
EXTT5=
EXTT6=
EXTT7=
EXTT8=
EXTT9=
PLAYORDER=
